<?xml version="1.0" encoding="iso-8859-1"?>
<svg fill="#000000" height="800px" width="800px" version="1.1" id="Layer_1" xmlns="http://www.w3.org/2000/svg" xmlns:xlink="http://www.w3.org/1999/xlink" 
	 viewBox="0 0 511.999 511.999" xml:space="preserve">
<g>
	<g>
		<path d="M359.962,483.169c-4.073-20.591-14.109-39.357-29.019-54.267c-3.184-3.184-8.346-3.184-11.529,0
			c-3.184,3.184-3.184,8.346,0,11.529c12.617,12.617,21.108,28.49,24.553,45.902c0.769,3.883,4.175,6.572,7.989,6.572
			c0.525,0,1.058-0.051,1.591-0.157C357.964,491.875,360.836,487.586,359.962,483.169z"/>
	</g>
</g>
<g>
	<g>
		<path d="M192.583,428.903c-3.182-3.184-8.344-3.184-11.528,0c-14.91,14.91-24.946,33.676-29.02,54.267
			c-0.874,4.417,1.998,8.706,6.415,9.58c0.535,0.105,1.066,0.157,1.591,0.157c3.813,0,7.22-2.689,7.989-6.572
			c3.445-17.411,11.936-33.284,24.553-45.902C195.767,437.248,195.767,432.086,192.583,428.903z"/>
	</g>
</g>
<g>
	<g>
		<path d="M217.952,245.673c-4.504,0-8.153,3.65-8.153,8.153c0,4.496-3.657,8.153-8.153,8.153s-8.153-3.657-8.153-8.153
			c0-4.503-3.649-8.153-8.153-8.153c-4.504,0-8.153,3.65-8.153,8.153c0,13.487,10.973,24.459,24.459,24.459
			c13.486,0,24.459-10.972,24.459-24.459C226.105,249.323,222.456,245.673,217.952,245.673z"/>
	</g>
</g>
<g>
	<g>
		<path d="M248.094,271.227c-3.899-2.253-8.884-0.921-11.139,2.977c-7.269,12.574-20.798,20.385-35.308,20.385
			c-4.503,0-8.153,3.65-8.153,8.153s3.65,8.153,8.153,8.153c20.313,0,39.25-10.931,49.425-28.53
			C253.325,278.468,251.992,273.481,248.094,271.227z"/>
	</g>
</g>
<g>
	<g>
		<path d="M310.351,294.59c-14.51,0-28.038-7.812-35.307-20.384c-2.255-3.898-7.241-5.231-11.139-2.977
			c-3.898,2.253-5.231,7.241-2.977,11.139c10.174,17.597,29.112,28.529,49.424,28.529c4.503,0,8.153-3.65,8.153-8.153
			S314.854,294.59,310.351,294.59z"/>
	</g>
</g>
<g>
	<g>
		<path d="M273.293,304.044c-1.441-1.441-3.27-2.251-5.155-2.387h-0.609h-23.058c-2.086,0-4.173,0.796-5.765,2.387
			c-3.185,3.184-3.185,8.346-0.001,11.53c4.619,4.619,10.761,7.164,17.294,7.164s12.675-2.545,17.295-7.164
			C276.478,312.391,276.478,307.228,273.293,304.044z"/>
	</g>
</g>
<g>
	<g>
		<path d="M219.282,199.565c-11.523-3.751-23.716-3.751-35.265,0.001c-4.282,1.391-6.627,5.991-5.234,10.273
			c1.119,3.446,4.314,5.636,7.752,5.636c0.835,0,1.684-0.129,2.521-0.401c8.25-2.68,16.956-2.681,25.179-0.004
			c4.284,1.397,8.882-0.947,10.276-5.229C225.905,205.56,223.563,200.958,219.282,199.565z"/>
	</g>
</g>
<g>
	<g>
		<path d="M424.491,196.756c-9.076,0-17.771,2.084-25.846,6.192c-4.013,2.043-5.611,6.951-3.569,10.964
			c2.043,4.013,6.952,5.61,10.964,3.569c5.761-2.932,11.969-4.419,18.451-4.419c22.478,0,40.764,18.286,40.764,40.764
			c0,22.478-18.286,40.764-40.764,40.764c-4.334,0-8.542-0.681-12.579-1.998c2.93-13.026,4.426-26.036,4.426-38.766
			c0-4.496,3.657-8.153,8.153-8.153c4.496,0,8.153,3.657,8.153,8.153c0,4.503,3.65,8.153,8.153,8.153s8.153-3.65,8.153-8.153
			c0-13.487-10.972-24.459-24.459-24.459c-13.487,0-24.459,10.972-24.459,24.459c0,13.542-1.862,27.472-5.534,41.405
			c-0.008,0.03-0.012,0.061-0.02,0.09c-0.01,0.036-0.024,0.07-0.033,0.105c-15.937,60.206-69.866,124.175-138.453,124.175
			c-17.254,0-34.365-4.068-50.857-12.091c-40.9-19.896-74.389-62.672-87.484-111.701c-0.03-0.15-0.087-0.295-0.126-0.442
			c-0.011-0.044-0.016-0.09-0.028-0.135c-3.672-13.934-5.534-27.863-5.534-41.406c0-13.487-10.972-24.459-24.459-24.459
			s-24.459,10.972-24.459,24.459c0,4.503,3.65,8.153,8.153,8.153s8.153-3.65,8.153-8.153c0-4.496,3.657-8.153,8.153-8.153
			s8.153,3.657,8.153,8.153c0,12.73,1.497,25.74,4.427,38.766c-4.037,1.318-8.245,1.998-12.579,1.998
			c-11.165,0-21.584-4.426-29.339-12.463c-7.751-8.032-11.799-18.617-11.398-29.804c0.735-20.547,17.362-37.75,37.854-39.161
			c7.369-0.505,14.715,0.971,21.251,4.276l2.365,1.282c6.568,3.596,14.743,8.072,22.845,5.183c3.074-1.095,7.285-3.75,9.893-10.177
			c8.698-21.426,19.902-37.75,33.316-48.593c29.255,12.814,59.823,22.275,91.277,28.274c1.439,7.685,2.289,17.028,2.582,28.392
			c0.251,9.736,6.231,18.403,15.236,22.081c2.136,0.873,4.507,1.765,7.066,2.637c-2.699,1.328-4.561,4.099-4.561,7.31
			c0,13.487,10.973,24.459,24.459,24.459c13.486,0,24.459-10.972,24.459-24.459c0-0.373-0.034-0.738-0.083-1.098
			c14.499-0.944,30.262-5.086,45.993-14.849c3.826-2.375,5.003-7.401,2.627-11.227c-2.374-3.825-7.401-5.004-11.227-2.627
			c-32.54,20.196-65.698,11.65-82.567,4.759c-3.014-1.232-5.018-4.139-5.102-7.406c-0.246-9.528-0.873-17.825-1.897-25.084
			c21.264,3.177,42.887,4.808,64.754,4.808c33.658,0,67.205-3.893,99.708-11.571c4.382-1.036,7.095-5.427,6.06-9.808
			c-1.036-4.382-5.425-7.092-9.808-6.06c-31.277,7.388-63.563,11.134-95.96,11.134c-71.876,0-141.067-18.086-202.735-52.664v-30.379
			c62.127,33.04,131.916,50.442,202.735,50.442c5.894,0,11.86-0.121,17.731-0.359c4.499-0.182,7.999-3.976,7.816-8.476
			c-0.182-4.499-3.995-8.007-8.476-7.816c-5.653,0.228-11.396,0.345-17.071,0.345c-71.078,0-141.065-18.223-202.735-52.722V40.764
			c0-13.487,10.972-24.459,24.459-24.459h195.669c13.487,0,24.459,10.972,24.459,24.459v127.523c0,4.503,3.65,8.153,8.153,8.153
			c4.503,0,8.153-3.65,8.153-8.153V40.764C405.468,18.286,387.182,0,364.704,0H169.035c-22.478,0-40.764,18.286-40.764,40.764
			v81.729c-8.9-5.536-17.631-11.418-26.167-17.662c-3.633-2.658-8.736-1.868-11.393,1.768c-2.658,3.634-1.866,8.736,1.768,11.393
			c12.724,9.307,25.862,17.844,39.346,25.634c-9.251,13.216-16.943,27.519-22.87,42.605c-1.647,4.191,0.415,8.923,4.607,10.569
			c0.979,0.385,1.987,0.566,2.98,0.566c3.254,0,6.329-1.962,7.59-5.173c5.67-14.431,13.098-28.073,22.061-40.628
			c3.954,2.087,7.927,4.128,11.935,6.085c-12.941,12.301-23.769,29.041-32.255,49.944c-0.182,0.448-0.341,0.741-0.454,0.921
			c-2.041-0.1-6.926-2.774-9.344-4.099l-2.535-1.373c-0.06-0.033-0.12-0.064-0.18-0.095c-9.186-4.674-19.511-6.768-29.853-6.055
			c-13.996,0.965-27.128,7.11-36.98,17.303c-9.846,10.189-15.546,23.522-16.047,37.543c-0.56,15.65,5.108,30.462,15.959,41.709
			c10.854,11.252,25.441,17.448,41.072,17.448c5.783,0,11.413-0.846,16.825-2.523c11.349,36.032,32.866,68.491,59.991,91.575
			c-20.272,17.937-35.135,41.724-42.151,67.762c-1.172,4.348,1.403,8.821,5.752,9.993c0.71,0.191,1.424,0.283,2.126,0.283
			c3.596,0,6.888-2.397,7.867-6.034c6.461-23.979,20.471-45.804,39.59-61.851c6.595,4.583,13.442,8.638,20.497,12.07
			c2.11,1.026,4.232,1.988,6.361,2.9v10.323c0,5.923,2.435,11.413,6.546,15.332c-3.584,7.131-2.417,16.059,3.529,22.003
			l33.765,33.765c1.1,3.201,4.13,5.506,7.705,5.506c3.468,0,6.421-2.168,7.6-5.22l34.051-34.051
			c5.944-5.944,7.111-14.872,3.529-22.003c4.111-3.92,6.546-9.408,6.546-15.332v-10.238c9.239-3.949,18.24-8.965,26.922-15.017
			c19.106,16.057,33.058,37.811,39.526,61.813c0.981,3.637,4.272,6.034,7.867,6.034c0.702,0,1.415-0.091,2.126-0.283
			c4.347-1.172,6.922-5.646,5.75-9.993c-7.027-26.076-21.851-49.794-42.124-67.738c2.118-1.806,4.215-3.669,6.284-5.606
			c24.518-22.938,43.361-53.202,53.682-85.993c5.412,1.677,11.04,2.523,16.823,2.523c31.469,0,57.07-25.601,57.07-57.07
			S455.96,196.756,424.491,196.756z M318.617,252.53c-0.067,0.423-0.113,0.853-0.113,1.296c0,4.496-3.657,8.153-8.153,8.153
			c-4.496,0-8.153-3.657-8.153-8.153c0-1.551-0.441-2.996-1.192-4.23C306.389,250.916,312.301,251.978,318.617,252.53z
			 M220.67,435.396v-4.507c3.614,1.035,7.25,1.911,10.9,2.627c-0.016,0.252-0.029,0.504-0.029,0.76c0,0.709,0.043,1.411,0.103,2.11
			c-0.34,0.248-0.67,0.515-0.976,0.822l-1.647,1.647c-2.087,2.086-4.423,1.436-5.331,1.061
			C222.782,439.54,220.67,438.346,220.67,435.396z M247.755,482.987L225.968,461.2c-1.059-1.06-1.059-2.784,0.001-3.844
			c0.255-0.255,0.483-0.527,0.697-0.807c4.442-0.229,8.762-1.835,12.305-4.737c2.544,2.472,5.533,4.311,8.783,5.473V482.987z
			 M261.763,440.041c-1.54,1.54-3.587,2.388-5.765,2.388c-2.177,0-4.225-0.848-5.765-2.388c-1.212-1.212-1.986-2.74-2.265-4.397
			c2.67,0.17,5.344,0.263,8.023,0.263c2.687,0,5.366-0.095,8.037-0.263C263.751,437.3,262.975,438.829,261.763,440.041z
			 M286.03,461.2l-21.968,21.968v-25.817c3.321-1.158,6.374-3.021,8.965-5.537c3.514,2.877,7.79,4.481,12.191,4.731l0.812,0.812
			C287.088,458.416,287.088,460.14,286.03,461.2z M291.328,435.395c0,2.95-2.112,4.144-3.02,4.52
			c-0.908,0.376-3.244,1.026-5.331-1.061l-1.171-1.171c-0.449-0.449-0.941-0.828-1.459-1.151c0.067-0.746,0.11-1.498,0.11-2.257
			c0-0.237-0.013-0.478-0.028-0.732c3.657-0.71,7.292-1.571,10.899-2.597V435.395z"/>
	</g>
</g>
</svg>
