<?xml version="1.0" encoding="iso-8859-1"?>
<svg fill="#000000" height="800px" width="800px" version="1.1" id="Layer_1" xmlns="http://www.w3.org/2000/svg" xmlns:xlink="http://www.w3.org/1999/xlink" 
	 viewBox="0 0 512.001 512.001" xml:space="preserve">
<g>
	<g>
		<path d="M273.158,292.187c-3.158-3.159-8.28-3.158-11.439,0c-1.527,1.528-3.559,2.37-5.72,2.37c-2.16,0-4.192-0.841-5.72-2.37
			c-3.159-3.158-8.281-3.159-11.439,0c-3.16,3.159-3.16,8.281-0.001,11.44c4.584,4.583,10.679,7.108,17.16,7.108
			c6.482,0,12.576-2.525,17.16-7.108C276.318,300.468,276.318,295.346,273.158,292.187z"/>
	</g>
</g>
<g>
	<g>
		<path d="M199.081,219.586c-1.384-4.247-5.947-6.57-10.197-5.186c-11.239,3.662-21.281,10.966-28.279,20.569
			c-2.631,3.612-1.837,8.672,1.774,11.302c1.438,1.047,3.105,1.552,4.758,1.552c2.497,0,4.961-1.153,6.544-3.326
			c5.009-6.874,12.188-12.098,20.214-14.714C198.143,228.4,200.465,223.835,199.081,219.586z"/>
	</g>
</g>
<g>
	<g>
		<path d="M202.072,239.665c-13.381,0-24.267,10.886-24.267,24.268c0,4.467,3.621,8.089,8.089,8.089
			c4.468,0,8.089-3.622,8.089-8.089c0-4.461,3.628-8.089,8.089-8.089c4.461,0,8.089,3.628,8.089,8.089
			c0,4.467,3.621,8.089,8.089,8.089c4.469,0,8.089-3.622,8.089-8.089C226.339,250.55,215.452,239.665,202.072,239.665z"/>
	</g>
</g>
<g>
	<g>
		<path d="M479.763,261.865c-0.497-13.911-6.152-27.142-15.923-37.251c-8.802-9.107-20.247-14.943-32.576-16.718v-52.569
			c0-33.589-16.443-64.691-43.983-83.198c-23.098-15.52-50.895-26.876-80.385-32.84c-9.486-1.918-19.454-1.718-28.854,0.53
			c-4.344,1.039-7.025,5.404-5.986,9.749c1.039,4.346,5.4,7.021,9.749,5.986c7.123-1.703,14.693-1.861,21.884-0.407
			c27.43,5.547,53.215,16.063,74.568,30.411c23.061,15.496,36.828,41.578,36.828,69.77v52.567c-3.153,0.454-6.26,1.18-9.309,2.168
			c-3.887,0.59-6.869,3.936-6.869,7.988v138.639c0,4.467,3.622,8.089,8.089,8.089c4.467,0,8.089-3.622,8.089-8.089v-36.717
			c2.667,0.382,5.366,0.586,8.089,0.586c15.509,0,29.981-6.148,40.752-17.31C474.694,292.088,480.318,277.392,479.763,261.865z
			 M452.286,292.012c-7.694,7.974-18.032,12.366-29.109,12.366c-2.738,0-5.442-0.278-8.089-0.815v-47.72h8.089
			c4.461,0,8.089,3.628,8.089,8.089c0,4.467,3.622,8.089,8.089,8.089c4.467,0,8.089-3.622,8.089-8.089
			c0-13.382-10.886-24.268-24.267-24.268h-8.089V224.31c3.572-0.729,7.237-0.982,10.949-0.725
			c20.333,1.401,36.831,18.469,37.56,38.857C463.992,273.542,459.975,284.043,452.286,292.012z"/>
	</g>
</g>
<g>
	<g>
		<path d="M208.859,110.078c-3.84-2.289-8.803-1.031-11.09,2.809c-22.815,38.283-64.56,62.065-108.946,62.065
			c-4.467,0-8.089,3.622-8.089,8.089c0,4.467,3.622,8.089,8.089,8.089c25.18-0.001,49.954-6.673,71.647-19.294
			c21.032-12.237,38.736-29.758,51.197-50.668C213.954,117.331,212.698,112.365,208.859,110.078z"/>
	</g>
</g>
<g>
	<g>
		<path d="M223.831,52.029c-4.458-0.392-8.375,2.9-8.764,7.351c-1.113,12.691-4.13,25.09-8.966,36.854
			c-1.699,4.132,0.274,8.858,4.406,10.557c1.007,0.414,2.048,0.609,3.073,0.609c3.182,0,6.2-1.89,7.484-5.015
			c5.46-13.277,8.864-27.271,10.119-41.592C231.572,56.344,228.281,52.419,223.831,52.029z"/>
	</g>
</g>
<g>
	<g>
		<path d="M446.848,350.898c-2.422-6.365-4.595-12.911-6.459-19.46c-1.223-4.297-5.698-6.787-9.996-5.564
			c-4.297,1.224-6.787,5.699-5.564,9.996c1.992,6.993,4.312,13.985,6.895,20.778c2.857,7.514,1.871,15.629-2.705,22.266
			c-4.608,6.682-11.902,10.514-20.013,10.514h-78.424c8.179-7.58,15.882-15.091,23.054-22.48c0.285,4.21,3.78,7.538,8.061,7.538
			c4.467,0,8.089-3.622,8.089-8.089l0.002-135.07c0-2.714-1.361-5.247-3.624-6.745c-2.264-1.499-5.128-1.761-7.625-0.701
			c-22.718,9.64-46.693,15.983-71.259,18.851c-4.156,0.484-8.049-2.362-8.86-6.483l-7.318-37.207
			c-4.57-23.232-15.292-44.578-31.109-62.071c15.359-26.046,24.188-56.383,24.188-88.747V16.164c0-4.467-3.622-8.089-8.089-8.089
			c-4.467,0-8.089,3.622-8.089,8.089v24.041L216.47,8.674c-11.565-11.565-30.382-11.564-41.946,0L43.565,139.633
			c-11.564,11.564-11.564,30.382,0,41.946l25.779,25.779l-27.017,0.068c-4.467,0.015-8.077,3.649-8.062,8.116
			c0.015,4.459,3.634,8.062,8.089,8.062c0.009,0,0.018,0,0.027,0l46.535-0.118c2.681,0,5.345-0.07,7.997-0.19v16.368h-8.089
			c-13.382,0-24.268,10.886-24.268,24.268c0,4.467,3.622,8.089,8.089,8.089c4.467,0,8.089-3.622,8.089-8.089
			c0-4.461,3.628-8.089,8.089-8.089h8.089v47.725c-2.648,0.537-5.353,0.81-8.089,0.81c-11.078,0-21.416-4.392-29.11-12.367
			c-7.689-7.969-11.706-18.471-11.309-29.571c0.285-7.972,2.938-15.633,7.672-22.156c2.624-3.616,1.821-8.674-1.796-11.298
			c-3.617-2.626-8.675-1.82-11.298,1.796c-6.63,9.135-10.346,19.883-10.746,31.08c-0.557,15.527,5.067,30.224,15.834,41.383
			c7.441,7.713,16.652,13.028,26.748,15.58c-2.472,10.896-5.702,21.653-9.665,32.073c-4.706,12.375-3.02,26.282,4.509,37.2
			c7.56,10.962,20.02,17.507,33.331,17.507h74.021c-3.231,3.008-6.311,6.175-9.161,9.509l-0.195,0.229
			c-10.845,12.749-16.817,29.221-16.817,46.384v30.555c0,4.467,3.622,8.089,8.089,8.089c4.467,0,8.089-3.622,8.089-8.089v-30.555
			c0-13.326,4.603-26.076,12.945-35.884l0.181-0.212c3.823-4.472,8.082-8.638,12.658-12.387l9.255-6.529
			c2.433,1.618,4.94,3.132,7.512,4.527c0.008,0.004,0.015,0.007,0.023,0.011c4.714,2.555,9.636,4.701,14.693,6.44l-25.828,31.796
			c-1.349-2.59-4.052-4.361-7.173-4.361c-4.467,0-8.089,3.622-8.089,8.089v31.515v18.72v0.456c0,4.467,3.622,8.089,8.089,8.089
			c4.467,0,8.089-3.622,8.089-8.089v-0.456v-18.72c0-7.206,2.634-13.954,6.942-19.26c0.008-0.009,0.016-0.016,0.023-0.025
			l0.071-0.087c5.397-6.585,13.382-10.916,22.121-11.06c2.776-0.042,5.513,0.288,8.152,0.991c12.612,3.358,26.018,3.359,38.633,0
			c2.638-0.702,5.382-1.034,8.15-0.99c8.746,0.145,16.736,4.48,22.133,11.072l0.06,0.074c0.006,0.008,0.014,0.014,0.019,0.022
			c4.309,5.305,6.945,12.056,6.945,19.264v18.721v0.456c0,4.467,3.622,8.089,8.089,8.089c4.467,0,8.089-3.622,8.089-8.089v-0.456
			v-18.721V453.22c0-4.467-3.622-8.089-8.089-8.089c-3.121,0-5.825,1.771-7.174,4.361l-25.821-31.787
			c7.512-2.585,14.693-6.088,21.387-10.448l12.193,7.718c3.658,3.15,7.104,6.613,10.247,10.298
			c8.663,10.158,13.434,23.105,13.434,36.456v28.701c0,4.467,3.622,8.089,8.089,8.089c4.467,0,8.089-3.622,8.089-8.089v-28.701
			c0-17.195-6.145-33.87-17.303-46.955c-2.745-3.217-5.692-6.283-8.787-9.168h73.938c13.31,0,25.771-6.545,33.331-17.507
			C449.868,377.181,451.553,363.274,446.848,350.898z M92.133,207.267L55.005,170.14c-5.257-5.257-5.257-13.811,0-19.068
			L185.965,20.113c5.257-5.257,13.81-5.257,19.067,0l42.329,42.329C240.236,142.464,173.616,205.629,92.133,207.267z
			 M271.153,439.658c-9.898,2.636-20.411,2.635-30.304,0c-3.999-1.066-8.144-1.575-12.318-1.529l13.148-16.185
			c4.735,0.706,9.525,1.074,14.324,1.074c4.825,0,9.608-0.373,14.322-1.071l13.144,16.183
			C279.301,438.083,275.151,438.593,271.153,439.658z M310.061,386.238c-14.88,13.286-34.078,20.603-54.06,20.603
			c-13.481,0-26.869-3.395-38.716-9.82c-0.005-0.002-0.01-0.004-0.015-0.008c-5.517-2.992-10.674-6.617-15.332-10.775
			c-16.443-14.682-31.061-29.102-43.549-42.914V230.74c0-4.467-3.622-8.089-8.089-8.089c-4.467,0-8.089,3.622-8.089,8.089v135.655
			c0,4.467,3.622,8.089,8.089,8.089c4.283,0,7.779-3.331,8.061-7.541c7.169,7.386,14.871,14.895,23.058,22.484h-78.426
			c-8.11,0-15.404-3.832-20.013-10.514c-4.576-6.636-5.562-14.751-2.705-22.266c4.46-11.728,8.058-23.856,10.745-36.135
			c1.979-0.076,3.944-0.263,5.892-0.541v11.832c0,4.467,3.622,8.089,8.089,8.089c4.467,0,8.089-3.622,8.089-8.089V221.811
			c48.257-6.688,90.291-33.091,117.687-70.795c12.323,14.69,20.724,32.201,24.451,51.145l7.318,37.207
			c2.236,11.366,12.311,19.477,23.633,19.569c-0.339,1.612-0.52,3.283-0.52,4.995c0,4.467,3.621,8.089,8.089,8.089
			s8.089-3.622,8.089-8.089c0-4.461,3.628-8.089,8.089-8.089s8.089,3.628,8.089,8.089c0,4.467,3.621,8.089,8.089,8.089
			c4.468,0,8.089-3.622,8.089-8.089c0-4.842-1.431-9.353-3.884-13.144c7.871-2.164,15.646-4.674,23.3-7.533l-0.002,100.13
			c-0.114,0.112-0.231,0.219-0.34,0.339C340.848,357.424,326.311,371.728,310.061,386.238z"/>
	</g>
</g>
</svg>
