<?xml version="1.0" encoding="UTF-8"?>
<svg class="icon" style="width:2em;height:2em;vertical-align: middle;fill: currentColor;overflow: hidden;" viewBox="0 0 1024 1024" version="1.1" xmlns="http://www.w3.org/2000/svg" p-id="12559"><path d="M892.352 245.312c-30.048-14.816-63.744 0.96-79.904 13.344L704 348.096 704 256c0-52.928-43.072-96-96-96L192 160C139.072 160 96 203.072 96 256l0 224c0 17.664 14.336 32 32 32s32-14.336 32-32L160 256c0-17.632 14.368-32 32-32l416 0c17.664 0 32 14.368 32 32l0 160c0 12.384 7.168 23.648 18.336 28.928 11.296 5.312 24.512 3.616 34.016-4.256l159.872-131.936c2.912-2.208 7.2-4.128 10.336-4.992C863.264 306.336 864 310.816 864 317.984l0 388.064c0 7.072-0.704 11.52-1.376 14.144-3.04-0.832-6.912-2.56-9.056-4.224l-161.216-132.672c-9.568-7.872-22.88-9.504-33.984-4.224C647.168 584.352 640 595.616 640 608l0 160c0 17.664-14.336 32-32 32l-160 0c-17.664 0-32 14.304-32 32s14.336 32 32 32l160 0c52.928 0 96-43.072 96-96l0-92.224 109.792 90.336c18.912 14.4 50.944 26.272 78.624 12.608C908.672 770.688 928 751.552 928 706.016L928 317.984C928 272.48 908.608 253.344 892.352 245.312z" fill="#5F636D" p-id="12560"></path><path d="M384 672 288 672l0-96c0-17.696-14.336-32-32-32s-32 14.304-32 32l0 96L128 672c-17.664 0-32 14.304-32 32s14.336 32 32 32l96 0 0 96c0 17.696 14.336 32 32 32s32-14.304 32-32l0-96 96 0c17.664 0 32-14.304 32-32S401.664 672 384 672z" fill="#000" p-id="12561"></path></svg>