<?xml version="1.0" encoding="UTF-8"?>
<svg class="icon1" viewBox="0 0 1024 1024" style="color:#6c6c6c;width: 2em;height: 2em;vertical-align: middle;fill: currentColor;overflow: hidden;" version="1.1" xmlns="http://www.w3.org/2000/svg" p-id="5317">
<path
    d="M497.9 897.3c-19 0-36.3-7.7-49.1-19.9 6.1 21.4 25.8 36.9 49.1 36.9h26.7c23.3 0 43-15.5 49.1-36.9-12.8 12.2-30.1 19.9-49.1 19.9h-26.7zM444.2 667.9c-34-21.6-62.9-51.3-82.9-86.2-21.5-37.6-33.2-80.6-33.2-124.5 0-66.7 25.9-129.5 73.1-176.7 15.9-15.9 33.4-29.3 52.4-40.2C354 265.5 280 355.8 280 463.2c0 81.2 41.8 154.7 111 196.5l5.3 2.9v52.2c0 1.2 3.8 4.5 10.4 4.5h39.2c-1.7-3-1.6-6.8-1.6-10.2v-41.2z"
    p-id="5318"></path>
<path
    d="M614.8 738.7H408.6c-17.6 0-31.4-10.3-31.4-23.5v-41.3c-34-21.6-62.4-51.3-82.4-86.2-21.5-37.6-32.9-80.6-32.9-124.5 0-66.7 26-129.5 73.2-176.7s109.9-73.2 176.7-73.2 129.5 26 176.7 73.2 73.2 109.9 73.2 176.7c0 86.5-43 164.8-115.4 210.5v41.4c-0.1 13.3-13.9 23.6-31.5 23.6z m-217.5-23.8c0.7 1.2 4.7 3.8 11.4 3.8h206.2c6.6 0 10.6-2.6 11.4-3.8v-52.4l4.8-2.9c69.2-41.6 110.5-115 110.5-196.3 0-126.7-103.1-229.9-229.9-229.9-126.7 0-229.9 103.1-229.9 229.9 0 81.2 41.3 154.7 110.5 196.5l4.8 2.9v52.2zM632.4 790.6H391.1c-6.5 0-11.7-5.3-11.7-11.7v-26.6c0-6.5 5.3-11.7 11.7-11.7h241.3c6.5 0 11.7 5.3 11.7 11.7v26.6c0 6.5-5.2 11.7-11.7 11.7z m-233-20h224.8v-10H399.4v10zM632.4 844.6H391.1c-6.5 0-11.7-5.3-11.7-11.7v-25.1c0-6.5 5.3-11.7 11.7-11.7h241.3c6.5 0 11.7 5.3 11.7 11.7v25.1c0 6.5-5.2 11.7-11.7 11.7z m-233-20h224.8v-8.5H399.4v8.5zM525.1 931.2h-26.7c-39.2 0-71-31.9-71-71v-10h168.7v10c0 39.2-31.9 71-71 71z m-76.7-61c4.7 23.4 25.3 41 50 41h26.7c24.7 0 45.4-17.7 50-41H448.4zM884 484.5h-70.1c-5.5 0-10-4.5-10-10s4.5-10 10-10H884c5.5 0 10 4.5 10 10s-4.5 10-10 10zM839 297.2l-60.7 35c-4.8 2.8-10.9 1.1-13.7-3.7s-1.1-10.9 3.7-13.7l60.7-35c4.8-2.8 10.9-1.1 13.7 3.7s1.1 11-3.7 13.7zM706.4 157.5l-35 60.7c-2.8 4.8-8.9 6.4-13.7 3.7s-6.4-8.9-3.7-13.7l35-60.7c2.8-4.8 8.9-6.4 13.7-3.7s6.5 8.9 3.7 13.7zM521.8 102.8v70.1c0 5.5-4.5 10-10 10s-10-4.5-10-10v-70.1c0-5.5 4.5-10 10-10s10 4.5 10 10zM334.4 147.7l35 60.7c2.8 4.8 1.1 10.9-3.7 13.7s-10.9 1.1-13.7-3.7l-35-60.7c-2.8-4.8-1.1-10.9 3.7-13.7s11-1 13.7 3.7zM194.7 280.3l60.7 35c4.8 2.8 6.4 8.9 3.7 13.7s-8.9 6.4-13.7 3.7l-60.7-35c-4.8-2.8-6.4-8.9-3.7-13.7s8.9-6.4 13.7-3.7zM140 465h70.1c5.5 0 10 4.5 10 10s-4.5 10-10 10H140c-5.5 0-10-4.5-10-10s4.5-10 10-10z"
    p-id="5319"></path>
<path
    d="M537.4 729.3c-3.3-55.5 0.7-125.7 10.8-192.7 1.9-12.5 5.1-31.9 9.4-51.8-17.9 0.6-36.2-1.8-51.2-8-0.9 0.3-1.9 0.5-2.8 0.7-11 2.7-23.4 3.4-36.2 2.1 5.3 26.3 9.8 58.6 13.2 96.3 7 77.3 7.5 152 7.5 152.7l-20 0.1c0-0.7-0.4-74.6-7.4-151.1-4.1-44.9-9.2-77.8-14.5-101.8-1.1-0.3-2.1-0.6-3.2-0.9-32.8-9.4-65.9-31.9-60.9-59.3 1.5-8 6.5-15.2 13.9-19.8 13.7-8.5 24.8-5.8 31.7-2 14.6 8.1 25.8 28.7 35 64.9 6.6 1.1 13.3 1.6 19.9 1.4-6.5-7.7-10.1-17-10.6-27.4-1.7-35.7 16.6-48.6 24.5-52.5 13.5-6.7 29.7-4.6 41.4 5.2 13.8 11.6 18.2 31.2 11.9 52.5l-0.3 0.8c-3.8 9.8-9.7 18-17.2 24.5 9.6 1.6 20 1.9 30.2 1.2 5.9-22.8 13.3-43.4 21.9-51.9l0.3-0.3c11.9-10.7 25.3-14.2 36.8-9.7 10.6 4.2 17.8 14.7 18.8 27.2 1.2 15.7-7.3 30.6-22.8 39.8-10.1 6-23.9 10.5-39 13-3.6 15.8-7.3 34.8-10.6 56.8-9.9 65.7-13.8 134.4-10.6 188.5l-19.9 1.5z m61-302.3c-3.8 3.9-8.9 15.4-14.2 34.3 9.1-2.1 17.2-5.1 23.3-8.7 8.8-5.3 13.7-13.1 13.1-21.1-0.4-4.8-2.8-8.9-6.3-10.2-4.2-1.7-10 0.4-15.9 5.7z m-85.2-30.5c-2.7 0-5.3 0.6-7.8 1.8-9.3 4.6-14.2 16.9-13.4 33.7 0.5 9.9 5.6 17.6 15.7 23.3 10.1-4.4 18.4-11.8 23-23.3 3.9-13.4 1.8-24.7-5.8-31.1-3.3-2.9-7.5-4.4-11.7-4.4zM414 410.3c-1.9 0-4.2 0.7-7.3 2.6-2.6 1.6-4.3 4-4.8 6.4-1.8 9.6 13.1 24.6 38.6 33.8-8.9-30-17.6-39-22.4-41.6-1.1-0.7-2.4-1.2-4.1-1.2z"
    p-id="5320"></path>
<path d="M646.7 380.9m-12 0a12 12 0 1 0 24 0 12 12 0 1 0-24 0Z" fill="#FF3333" p-id="5321"></path>
<path d="M519.7 332.9m-12 0a12 12 0 1 0 24 0 12 12 0 1 0-24 0Z" fill="#FF3333" p-id="5322"></path>
<path d="M385.7 360.9m-12 0a12 12 0 1 0 24 0 12 12 0 1 0-24 0Z" fill="#FF3333" p-id="5323"></path>
</svg>