<?xml version="1.0" encoding="UTF-8"?>
<svg class="icon" style="width:2em;height:2em;vertical-align: middle;fill: currentColor;overflow: hidden;" viewBox="0 0 1024 1024" version="1.1" xmlns="http://www.w3.org/2000/svg" p-id="10040"><path d="M236.880363 1019.283956l250.648631-139.044461c8.344715-4.607512 30.204798-13.668951 50.221876-0.10239l251.211772 138.225349a36.501731 36.501731 0 0 0 53.754302-38.037568l-48.942012-292.321014s-10.136526-47.559759 12.54267-65.119498l207.286828-198.839723a36.501731 36.501731 0 0 0 8.549494-36.757703c-4.24915-12.901032-13.259395-26.621178-26.621178-28.924934H798.689611c-16.894209 0-30.409577 14.180897-26.774762 28.924934 3.634815 14.692843 12.440281 22.269639 34.402753 22.269639h160.597377l-200.529144 180.512066c-26.211622 23.242336-28.054626 53.498329-26.211621 64.914719l5.631403 34.607531 43.310609 269.283456-254.539419-143.651973a45.460781 45.460781 0 0 0-39.778184 0l-242.35511 138.737294 64.1468-271.382433c5.529014-29.744047-9.931747-61.996628-28.412988-81.757734L57.904134 409.556587s93.58368 0.972697 153.327747 0c74.539299-1.22867 157.525702-14.180897 188.344836-51.194573 19.300354-15.204788 67.730421-146.41648 67.73042-146.41648l43.822555-141.60419 145.750951 316.894409c8.703077 18.327657 22.474418 20.529024 34.863504 17.047793 12.440281-3.532426 21.092164-19.351549 12.440281-37.679206L544.252581 20.989775a36.60412 36.60412 0 0 0-66.194583 0.153584l-60.56318 183.276572S381.197865 304.505322 360.976009 322.372229C324.115916 355.034366 235.549304 358.362014 109.149902 358.362014H33.484323c-13.566562 2.047783-25.597287 10.75086-29.948826 23.754282-4.300344 12.952227-2.559729 34.14678 6.962462 43.873749 0 0 210.256113 185.221966 222.6452 196.894329 34.044391 32.098998 28.822545 37.935179 27.593875 65.119498 1.22867 0-63.225298 272.45752-68.498339 288.276642-5.273041 15.870318-5.529014 32.866916 5.887376 40.955659a35.989785 35.989785 0 0 0 38.754292 2.047783z" fill="#000" p-id="10041"></path></svg>