<?xml version="1.0" encoding="UTF-8"?>
<svg class="icon" style="width:2em;height:2em;vertical-align: middle;fill: currentColor;overflow: hidden;" viewBox="0 0 1024 1024" version="1.1" xmlns="http://www.w3.org/2000/svg" p-id="4177"><path d="M182.091294 756.705882H57.690353C45.281882 756.705882 7.529412 756.675765 7.529412 709.074824V463.631059c0-33.927529 18.748235-53.278118 50.160941-53.278118h124.416c34.032941 0 66.379294 20.871529 66.379294 53.278118v245.443765c-0.015059 17.769412-16.865882 47.631059-66.394353 47.631058zM966.174118 756.705882h-128.692706c-22.678588 0-46.878118-5.436235-46.878118-47.631058V463.631059c0-47.134118 28.687059-53.278118 46.878118-53.278118h128.692706c33.355294 0 50.296471 19.862588 50.29647 53.278118v245.443765c0 31.593412-14.426353 47.631059-50.29647 47.631058zM60.054588 428.739765a14.471529 14.471529 0 0 1-14.396235-16.00753C70.098824 184.801882 266.405647 19.365647 512.421647 19.365647c245.684706 0 441.976471 165.391059 466.718118 393.261177a14.456471 14.456471 0 0 1-28.762353 3.132235C927.262118 202.842353 743.062588 48.308706 512.421647 48.308706c-234.676706 0-414.795294 151.130353-438.000941 367.510588a14.456471 14.456471 0 0 1-14.366118 12.920471z m797.936941-3.282824a14.456471 14.456471 0 0 1-14.411294-13.342117C831.563294 259.403294 679.920941 130.379294 512.421647 130.379294s-319.156706 129.008941-331.143529 281.720471a14.471529 14.471529 0 0 1-28.852706-2.258824c13.146353-167.168 177.995294-308.389647 359.996235-308.389647 182.000941 0 346.849882 141.221647 359.996235 308.404706a14.471529 14.471529 0 0 1-14.426353 15.600941zM607.472941 984.139294a14.456471 14.456471 0 0 1-3.072-28.596706c106.601412-23.356235 233.773176-105.336471 259.553883-211.275294a14.456471 14.456471 0 1 1 28.114823 6.851765C863.518118 868.442353 725.729882 958.569412 610.575059 983.792941a14.607059 14.607059 0 0 1-3.102118 0.346353zM603.934118 1007.962353a38.339765 38.339765 0 0 1-38.294589-38.294588 38.339765 38.339765 0 0 1 38.294589-38.294589 38.339765 38.339765 0 0 1 38.294588 38.294589 38.324706 38.324706 0 0 1-38.294588 38.294588z m0-47.661177a9.366588 9.366588 0 0 0 0 18.718118 9.366588 9.366588 0 0 0 0-18.718118z" p-id="4178"></path></svg>