<?xml version="1.0" encoding="UTF-8"?>
<svg class="icon" style="width:2em;height:2em;vertical-align: middle;fill: currentColor;overflow: hidden;" viewBox="0 0 1024 1024" version="1.1" xmlns="http://www.w3.org/2000/svg" p-id="30546"><path d="M755.712 483.328c79.93 0 144.725 64.796 144.725 144.725v270.932h-60.074V628.053c0-46.75-37.9-84.65-84.651-84.65H266.757c-46.75 0-84.65 37.9-84.65 84.65v270.932h-60.075V628.053c0-79.93 64.796-144.725 144.725-144.725z m-208.213 125.61v202.07h-60.075v-202.07h60.075zM502.443 120.15c87.47 0 158.378 70.909 158.378 158.379 0 87.47-70.908 158.379-158.378 158.379-87.47 0-158.379-70.909-158.379-158.379 0-87.47 70.909-158.379 158.379-158.379z m0 60.075c-54.292 0-98.304 44.012-98.304 98.304s44.012 98.304 98.304 98.304c54.291 0 98.304-44.012 98.304-98.304s-44.013-98.304-98.304-98.304z" fill="#191F39" p-id="30547"></path></svg>