<?xml version="1.0" encoding="UTF-8"?>
<svg class="icon" style="color:#6c6c6c;vertical-align:middle;fill: currentColor;overflow: hidden;"
viewBox="0 0 1024 1024" version="1.1" xmlns="http://www.w3.org/2000/svg" p-id="7497">
<path
    d="M732.14332 523.674261c3.335505-253.498368-203.465796-366.905533-220.14332-373.576543l0 0c0 0 0 0 0 0 0 0 0 0 0 0l0 0c-13.342019 6.67101-223.478825 123.413679-220.14332 373.576543C248.495117 550.358299 205.133554 600.390872 211.804564 683.778493c6.67101 83.387621 90.058631 140.091203 120.078174 136.755699 30.019544-3.335505 23.348534-26.684039 23.348534-26.684039l10.006515-43.361563c0 0 46.697068 70.045602 60.039087 70.045602 13.342019 0 76.716611 0 83.387621 0l0 0c0 0 0 0 0 0 0 0 0 0 0 0l0 0c6.67101 0 70.045602 0 83.387621 0 13.342019 0 60.039087-70.045602 60.039087-70.045602l10.006515 43.361563c0 0-10.006515 23.348534 23.348534 26.684039 30.019544 3.335505 113.407165-53.368078 120.078174-136.755699C818.866446 600.390872 775.504883 550.358299 732.14332 523.674261L732.14332 523.674261zM512 520.338756c-6.67101 0-83.387621-3.335505-90.058631-93.394136C425.276874 340.221494 505.32899 333.550484 512 333.550484c6.67101 0 86.723126 6.67101 90.058631 93.394136C595.387621 517.003251 518.67101 520.338756 512 520.338756L512 520.338756zM465.302932 957.28989c0 10.006515-6.67101 20.013029-20.013029 20.013029l0 0c-10.006515 0-20.013029-6.67101-20.013029-20.013029l0-93.394136c0-10.006515 6.67101-20.013029 20.013029-20.013029l0 0c10.006515 0 20.013029 6.67101 20.013029 20.013029L465.302932 957.28989 465.302932 957.28989zM535.348534 1003.986958c0 10.006515-10.006515 20.013029-20.013029 20.013029l0 0c-10.006515 0-20.013029-10.006515-20.013029-20.013029L495.322476 867.23126c0-10.006515 10.006515-20.013029 20.013029-20.013029l0 0c10.006515 0 20.013029 10.006515 20.013029 20.013029L535.348534 1003.986958 535.348534 1003.986958zM598.723126 933.941356c0 10.006515-6.67101 20.013029-20.013029 20.013029l0 0c-10.006515 0-20.013029-6.67101-20.013029-20.013029l0-66.710097c0-10.006515 6.67101-20.013029 20.013029-20.013029l0 0c10.006515 0 20.013029 6.67101 20.013029 20.013029L598.723126 933.941356 598.723126 933.941356zM598.723126 933.941356M868.899018 0C868.899018 0 868.899018 0 868.899018 0L155.100982 0l0 0C148.429972 0 145.094467 6.67101 145.094467 13.342019c0 6.67101 3.335505 13.342019 10.006515 13.342019l0 0 713.798037 0c0 0 0 0 0 0 6.67101 0 10.006515-6.67101 10.006515-13.342019C878.905533 6.67101 875.570028 0 868.899018 0z"
    p-id="7498"></path>
</svg>