<?xml version="1.0" encoding="UTF-8"?>
<svg width="800" height="800" viewBox="0 0 800 800" xmlns="http://www.w3.org/2000/svg"><style>@keyframes dash1{0%{stroke-dashoffset:135}3%,to{stroke-dashoffset:0}}@keyframes dash2{0%,3%{stroke-dashoffset:2265}70%,to{stroke-dashoffset:0}}@keyframes dash3{0%,70%{stroke-dashoffset:135}73%,to{stroke-dashoffset:0}}</style><g id="page1" fill="none" fill-rule="evenodd"><path id="loading-bg" fill="#e7e7e7" d="M0 0h800v800H0z"/><path d="M190.83 359.28c1.545-4.135 3.058-14.913 1.542-11.686-21.59 45.965-47.036 106.732-41.638 111.406" stroke="#666" stroke-width="5" stroke-linecap="round" stroke-linejoin="round" style="animation:dash1 5s linear infinite" stroke-dasharray="135" stroke-dashoffset="135"/><path d="M171.267 371.447c-3.17 3.164-12.561 4.652-13.197 0-2.329-17.052 53.938-57.608 67.535-36.429 19.407 30.228-37.26 92.235-47.352 82.934-6.467-5.96 39.473-22.18 47.352-24.803 27.946-9.3 56.118-70.808 48.13-63.556-8.54 7.75-45.8 86.034-49.682 102.31-2.118 8.882 21.735-35.653 35.708-35.653 7.763 0 5.434 19.377 9.315 19.377 13.164 0 42.695-28.678 34.932-23.253-11.407 7.973-15.21 29.453-7.762 29.453 17.078 0 26.256-33.314 20.183-37.979-10.092-7.75-28.797 24.438 0 22.478 34.156-2.326 45.187-59.702 41.142-49.605-3.105 7.75-27.065 52.844-17.854 65.106 4.657 6.201 52.786-34.878 44.247-29.453-6.402 4.068-18.63 24.803-9.315 29.453 9.315 4.65 29.925-33.575 21.735-37.979-10.091-5.425-32.313 25.735 0 23.253 10.092-.775 36.485-17.052 29.498-15.502-6.986 1.55-27.932 26.17-19.406 32.554 6.21 4.65 35.986-44.434 33.38-37.204-6.987 19.377-31.828 83.709-41.92 83.709-8.274 0 10.073-23.911 31.052-44.955 20.349-20.413 43.286-37.98 39.59-37.98-2.33 0-12.422 34.779-11.645 32.554 9.713-27.795 63.762-29.62 61.325-32.553-9.683-11.655-34.053 24.163-24.064 27.903 6.21 2.325 18.63-15.502 18.63-20.152 0-1.95 1.553 20.152 10.092 18.602 18.188-3.302 40.952-41.665 33.38-34.104-3.545 3.539-14.284 23.472-21.736 44.18-8.869 24.644-14.228 50.108-13.197 46.505.788-2.755 8.74-28.097 19.407-50.38 10.348-21.617 23.078-40.223 27.946-37.98 10.091 4.65-10.868 46.505-22.512 44.955-11.644-1.55 10.42-13.137 37.26-31.003 18.631-12.402 51.794-79.254 38.038-63.557-10.868 12.401-55.891 117.812-46.576 99.986 4.602-8.807 26.43-34.543 34.932-36.43 6.986-1.55 5.434 17.828 9.315 19.378 4.225 1.687 14.834-5.289 31.827-20.927" stroke="#666" stroke-width="5" stroke-linecap="round" stroke-linejoin="round" style="animation:dash2 5s linear infinite" stroke-dasharray="2265" stroke-dashoffset="2265"/><path d="M309 367c37.866-4.156 69.592-6.743 95.179-7.761 17.746-.707 29.354.156 34.821 2.587" stroke="#666" stroke-width="5" stroke-linecap="round" stroke-linejoin="round" style="animation:dash3 5s linear infinite" stroke-dasharray="135" stroke-dashoffset="135"/></g></svg>