<?xml version="1.0" encoding="UTF-8"?>
<svg class="svg icon1" style="color:#6c6c6c;width:2em;height:2em;vertical-align:middle" viewBox="0 0 1024 1024" xmlns="http://www.w3.org/2000/svg" fill="currentColor" overflow="hidden"><path d="M384 160H192a64 64 0 0 0-64 64v192a64 64 0 0 0 64 64h192a64 64 0 0 0 64-64V224a64 64 0 0 0-64-64zm448 0H640a64 64 0 0 0-64 64v192a64 64 0 0 0 64 64h192a64 64 0 0 0 64-64V224a64 64 0 0 0-64-64zM384 608H192a64 64 0 0 0-64 64v192a64 64 0 0 0 64 64h192a64 64 0 0 0 64-64V672a64 64 0 0 0-64-64zm448 0H640a64 64 0 0 0-64 64v192a64 64 0 0 0 64 64h192a64 64 0 0 0 64-64V672a64 64 0 0 0-64-64z"/></svg>